<?xml version="1.0" encoding="UTF-8"?>
<svg id="Calque_1" data-name="Calque 1" xmlns="http://www.w3.org/2000/svg" viewBox="0 0 3172.88 1951.97">
  <defs>
    <style>
      .cls-1 {
        fill: #13678a;
      }

      .cls-2 {
        fill: #45c4b0;
      }

      .cls-3 {
        fill: #dafdba;
      }
    </style>
  </defs>
  <path class="cls-3" d="M0,27.44c81.51,84.82,169.07,202.38,217.79,357.27,127.64,405.81-95.19,801.52-77.24,808.96,14.28,5.92,141.18-250.14,544.72-1166.22-5.69,103.35-10.76,245.41-8.13,414.18,10.88,697.62,143.02,1184.74,154.47,1182.95,11.44-1.79-75.79-495.22,12.2-991.89,14.98-84.57,43.8-218.67,138.21-357.73,86.65-127.63,191.55-204.93,260.17-247.51,23.71,57.45,49.7,134.33,65.04,227.18,93.52,566.08-323.56,1031.88-296.75,1048.8,23.12,14.58,354.26-318.34,487.81-849.61,48.95-194.7,40.09-426.67,56.91-426.37,23.53.42-48.27,448.12,190.73,643.79,88.96,72.83,221.03,110.77,227.31,99.64,3.88-6.87-39.69-33.37-96.53-84.07-56.83-50.69-139.85-137.13-167.04-196.4-79.72-173.81,169.26-444.08,187-462.96,86.59,68.33,204.84,170.22,329.27,308.48,289.6,321.78,412.61,618.24,430.9,609.77,13.95-6.46-45.42-184.41-357.73-918.25,194.19,190.9,412.68,470.07,500.01,845.08,119.79,514.39-65.6,958.38-28.46,967.5,37.34,9.16,213.51-442.29,317.08-1012.21,60.2-331.26,79.04-609.95,85.13-800.36"/>
  <path class="cls-2" d="M-19.89,0C62.12,50.99,150.24,121.66,199.26,214.78c75.81,143.99-16.22,332.95-78.35,485.99-31.43,77.42-55.17,115.62-49.77,119.14C81.94,826.96,195.77,685.85,669.68,0c-5.72,62.13-10.83,147.53-8.18,248.99,10.94,419.39,143.92,712.24,155.44,711.16,11.52-1.08-76.26-297.71,12.27-596.3,15.07-50.84,44.07-131.46,139.08-215.06C1055.49,72.07,1161.05,25.59,1230.09,0c23.86,34.54,50.01,80.76,65.45,136.58,57.9,209.35-137.05,433.52-299.6,629.77-64.81,78.25-85.37,92.38-82.12,96.17,16.74,19.5,498.7-427.66,573.98-606.19,32.28-76.56,46.07-153.38,46.07-153.38C1544.06,47.49,1543.63-.02,1545.07,0c1.1.02-87.27,206.07,31.43,365.3,11.13,14.93,35.2,56.12,160.5,147.49,171.55,125.1,346.6,212.61,355.64,198.23,13.53-21.52-392.68-195.74-392.12-432.7C1700.78,164.72,1794.46,69.43,1888.68,0c87.13,41.08,206.12,102.33,331.34,185.45,291.42,193.45,415.2,371.67,433.6,366.58,14.03-3.88-45.71-110.86-359.97-552.03,195.4,114.77,415.27,282.6,503.14,508.04,57.05,146.36,9.9,399.52-31.23,580.58-17.53,77.16-33.08,120.41-24.35,124.22,27.92,12.19,247.57-402.99,346.01-731.69,42.67-142.47,62.43-268.23,65.15-285.92C3164.32,117.5,3170,50.72,3172.88,0"/>
  <path class="cls-1" d="M0,0c81.51,66.75,169.07,159.25,217.79,281.14,127.64,319.34-95.19,630.73-77.24,636.59C154.83,922.38,281.73,720.89,685.28,0c-5.69,81.33-10.76,193.12-8.13,325.93,10.88,548.98,143.02,932.3,154.47,930.89,11.44-1.41-75.79-389.7,12.2-780.54,14.98-66.55,43.8-172.07,138.21-281.51C1068.68,94.33,1173.58,33.5,1242.2,0c23.71,45.21,49.7,105.71,65.04,178.78,93.52,445.46-323.56,812.01-296.75,825.32,23.12,11.48,354.26-250.51,487.81-668.58,23.13-72.41,37.31-140.03,45.79-200.77C1554.21,62.16,1553.78-.03,1555.21,0c1.09.02-86.72,269.74,31.23,478.17,36.35,64.24,91.84,122.28,159.5,193.06,18.31,19.15,128.49,134.41,144.06,122.2,20.45-16.03-183.18-203.85-180.32-429.11C1711.64,210.17,1809.69,84.62,1896.68,0c86.59,53.77,204.84,133.95,329.27,242.75,289.6,253.22,412.61,486.51,430.9,479.84,13.95-5.08-45.42-145.11-357.73-722.59,194.19,150.23,412.68,369.91,500.01,665.01,119.79,404.78-65.6,754.17-28.46,761.35,37.34,7.21,213.51-348.05,317.08-796.53C3147.46,371.28,3166.25,151.12,3172.88,0"/>
</svg>