<?xml version="1.0" encoding="UTF-8"?>
<svg id="Calque_1" data-name="Calque 1" xmlns="http://www.w3.org/2000/svg" viewBox="0 0 1200 1200">
  <defs>
    <style>
      .cls-1 {
        fill: #13678a;
      }

      .cls-2 {
        fill: #fff;
      }

      .cls-3 {
        fill: #45c4b0;
      }

      .cls-4 {
        fill: #dafdba;
      }

      .cls-5 {
        fill: #1d1d1b;
        stroke: #1d1d1b;
        stroke-miterlimit: 10;
      }
    </style>
  </defs>
  <path class="cls-4" d="M1119.58,603.89c-200.88,180.02-341.54,200.23-433.83,183.99-116.21-20.45-218.24-109.7-441.58-128.83-38.04-3.26-69.31-3.6-89.17-3.43,223.96-221.89,365.85-247.73,456.83-222.55,125.95,34.86,198.51,179.75,377.99,188.54,54.87,2.69,100.38-8.29,129.76-17.72Z"/>
  <path class="cls-3" d="M875.32,910.17c-8.25-12.23-22.11-31-42.39-50.63-107.98-104.5-247.41-76.4-332.71-115.94-86.93-40.29-189.38-145.22-241.41-438.15,70.55-6.27,304.46-18.17,489.34,136.99,47.45,39.82,130.05,109.14,156.04,230.54,23.38,109.23-11.99,200.27-28.87,237.19Z"/>
  <path class="cls-1" d="M996.39,316.27c-73.49,327.07-181.88,423.95-270.02,449.69-78.13,22.82-173.02-20.13-278.85,41.29-53.47,31.03-86.5,73.89-105.17,102.92-21.11-32.04-55.52-95.11-51.27-174.41,7.12-132.94,117.78-216.58,171.63-257.28,90.77-68.61,181.12-89.67,317.68-124.15,88.35-22.31,163.56-32.72,215.99-38.05Z"/>
  <path class="cls-2" d="M852.32,627.89c-17.44,17.19-109.79,104.74-255.44,104.41-145.25-.33-237.06-87.83-254.52-105.14,7.76-11.6,92-132.8,246.92-136.74,165.21-4.2,257.3,128.85,263.04,137.47Z"/>
  <path class="cls-4" d="M538.55,451.75c25.7-7.98,98.4-29.28,182.55,1.34,100.14,36.45,144.41,120.24,154.23,140.06-7.67,11.58-15.34,23.16-23,34.73-15.37-19.23-38.49-44.52-70.9-68.89-21.3-16.02-58.33-43.87-110.24-57.97-92.65-25.16-173.16,9.66-199.15,21.34-68.36,30.72-109.61,77.9-129.67,104.79,11.03-23.01,67.91-135.61,196.19-175.41Z"/>
  <polygon class="cls-1" points="179.99 646.5 308.16 539.24 200.35 646.5 179.99 646.5"/>
  <circle class="cls-2" cx="649.6" cy="583" r="16.23"/>
  <path class="cls-1" d="M994.97,627.89c.15-1.61,27.01,2.7,62.02-3.11,25.16-4.17,38.19-10.86,38.44-10.15.41,1.15-33.84,20.35-75.07,18.13-14.06-.76-25.48-3.82-25.39-4.87Z"/>
  <path class="cls-1" d="M998.22,646.5c-.1-1.61,27.1-1.51,60.79-12.64,24.21-8,36.06-16.62,36.42-15.97.58,1.07-30.3,25.33-71.37,29.5-14.01,1.42-25.77.16-25.83-.89Z"/>
  <path class="cls-1" d="M203.09,651.1l109.09-107.26c-32.54,34.22-65.08,68.44-97.62,102.66-3.82,1.53-7.65,3.07-11.47,4.6Z"/>
  <g>
    <rect class="cls-5" x="583.11" y="530.07" width="55.74" height="165.67" transform="translate(612.34 -252.51) rotate(45)"/>
    <rect class="cls-5" x="578.86" y="530.13" width="55.74" height="165.75" transform="translate(-255.75 608.57) rotate(-45)"/>
  </g>
</svg>