<?xml version="1.0" encoding="UTF-8"?>
<svg id="Calque_1" data-name="Calque 1" xmlns="http://www.w3.org/2000/svg" viewBox="0 0 3172.88 1951.97">
  <defs>
    <style>
      .cls-1 {
        fill: #13678a;
      }

      .cls-2 {
        fill: #45c4b0;
      }

      .cls-3 {
        fill: #dafdba;
      }
    </style>
  </defs>
  <path class="cls-2" d="M0,1951.97c327.48-20.34,913.06-105.06,1499.05-486.9,243.92-158.94,432.23-333.08,573.43-487.51,366.8,324.8,733.6,649.61,1100.4,974.41H0Z"/>
  <path class="cls-3" d="M1218.55,1948.17c219.52-73.31,602.66-234.64,958.4-588.29,238.7-237.29,384.4-480.98,471.41-658.41,174.84,419.25,349.68,838.5,524.53,1257.76-651.45-3.68-1302.89-7.37-1954.34-11.05Z"/>
  <path class="cls-1" d="M923.93,1959.22c137.45,6.49,1014.58,33.25,1672.21-652.27C3085.22,797.13,3162.27,196.28,3178.92,6.26c-2.01,650.99-4.02,1301.97-6.03,1952.96H923.93Z"/>
</svg>